#!OML:ASF F:\twosubjects\two\wednesday\Session 1\rory1.ASF
:FULLY-SPECIFIED
:DEGREES
49
root 15.5559 17.8472 -7.50872 3.90079 11.6265 4.28841
lowerback -1.61458 -1.80089 -3.70587
upperback -1.27577 -2.35682 0.391244
thorax -0.239069 -1.15504 2.4412
lowerneck -11.797 -4.44443 -3.61257
upperneck 11.8295 -5.49162 0.853808
head 5.63065 -2.77646 0.395763
rclavicle -2.98312e-014 1.98785e-015
rhumerus -6.23176 -12.8244 -82.5708
rradius 36.443
rwrist -10.9093
rhand -17.0539 29.3941
rfingers 7.12502
rthumb 9.1833 -0.385961
lclavicle -2.98312e-014 1.98785e-015
lhumerus -61.1562 43.5603 45.246
lradius 10.447
lwrist -25.9074
lhand -19.8526 22.4318
lfingers 7.12502
lthumb 6.48215 52.3126
rfemur -35.1029 10.1602 11.2433
rtibia 30.9915
rfoot 0.931907 -10.7788
rtoes 8.62392
lfemur 14.6684 -1.01934 -22.878
ltibia 28.0397
lfoot 10.8637 -1.87227
ltoes -19.6571
50
root 15.5492 17.8538 -7.34575 3.5404 10.9583 4.08405
lowerback -0.879634 -1.61997 -3.34997
upperback -1.29103 -2.1475 0.409398
thorax -0.692792 -1.04437 2.28806
lowerneck -11.5736 -4.32257 -3.35312
upperneck 11.308 -5.35883 0.727266
head 5.41566 -2.70933 0.337791
rclavicle -4.72956e-014 4.37326e-015
rhumerus -8.08372 -12.8139 -82.6834
rradius 36.52
rwrist -10.8745
rhand -16.8544 29.2916
rfingers 7.12502
rthumb 9.37581 -0.479875
lclavicle -4.72956e-014 4.37326e-015
lhumerus -59.7287 43.4637 47.1446
lradius 10.5348
lwrist -25.1103
lhand -20.6684 20.7214
lfingers 7.12502
lthumb 5.69448 50.6249
rfemur -34.6298 10.3012 11.8678
rtibia 31.6547
rfoot 0.320822 -9.54461
rtoes 9.0932
lfemur 13.4839 -0.561607 -22.6053
ltibia 31.0032
lfoot 12.7656 -1.65166
ltoes -20.6185
51
root 15.5319 17.8689 -7.18035 3.17571 10.385 3.94314
lowerback 0.243255 -1.52068 -3.15499
upperback -1.5684 -2.05929 0.393473
thorax -1.62031 -0.982632 2.20262
lowerneck -11.1826 -4.1527 -2.84393
upperneck 10.896 -5.18838 0.440853
head 5.19642 -2.62561 0.195493
rclavicle 1.8664e-014 7.95139e-015
rhumerus -10.4351 -11.7654 -82.7359
rradius 36.6514
rwrist -11.4607
rhand -17.3125 29.9173
rfingers 7.12502
rthumb 8.93383 0.126461
lclavicle 1.8664e-014 7.95139e-015
lhumerus -58.4523 43.014 48.897
lradius 10.5658
lwrist -23.9239
lhand -21.1717 20.3958
lfingers 7.12502
lthumb 5.20859 50.3118
rfemur -33.9955 10.405 12.5043
rtibia 32.1877
rfoot -0.489423 -8.58008
rtoes 10.317
lfemur 12.2067 -0.195633 -22.3327
ltibia 34.0119
lfoot 14.9537 -0.550643
ltoes -17.8113
52
root 15.5175 17.8882 -7.0144 2.88078 10.0245 4.08146
lowerback 0.675509 -1.44607 -3.32201
upperback -1.39647 -1.97521 0.379681
thorax -1.68663 -0.939452 2.29063
lowerneck -11.1471 -4.07903 -2.59554
upperneck 10.3398 -5.12105 0.391376
head 5.00821 -2.58499 0.153713
rclavicle 2.39784e-014 -4.77083e-015
rhumerus -11.6096 -11.6891 -82.8558
rradius 35.905
rwrist -11.2441
rhand -17.6377 30.7386
rfingers 7.12502
rthumb 8.62001 0.934598
lclavicle 2.39784e-014 -4.77083e-015
lhumerus -56.1551 42.6375 51.8513
lradius 10.9089
lwrist -22.4353
lhand -21.7455 21.2376
lfingers 7.12502
lthumb 4.65447 51.1664
rfemur -33.2952 10.4562 12.8008
rtibia 32.6262
rfoot -1.01669 -8.09956
rtoes 11.1073
lfemur 10.7827 -0.13947 -22.4375
ltibia 37.0465
lfoot 16.8121 0.728173
ltoes -15.0115
53
root 15.505 17.9128 -6.85162 2.58944 9.88261 4.08186
lowerback 0.34828 -1.45753 -3.48665
upperback -0.674349 -1.96715 0.523444
thorax -0.751425 -0.960349 2.50778
lowerneck -11.5336 -3.97278 -2.5561
upperneck 9.5635 -4.97111 0.41917
head 4.8286 -2.50508 0.169077
rclavicle 8.6285e-015 1.39149e-014
rhumerus -11.6796 -12.9498 -83.121
rradius 34.8753
rwrist -9.9365
rhand -17.1642 30.9595
rfingers 7.12502
rthumb 9.07688 1.17484
lclavicle 8.6285e-015 1.39149e-014
lhumerus -52.7105 42.4759 55.9258
lradius 11.4118
lwrist -20.9171
lhand -22.2415 20.947
lfingers 7.12502
lthumb 4.17559 50.8858
rfemur -32.5869 10.5805 13.1541
rtibia 33.0055
rfoot -1.44594 -7.98937
rtoes 12.4827
lfemur 9.20376 -0.317937 -22.4319
ltibia 39.9939
lfoot 18.409 1.39109
ltoes -15.7663
54
root 15.4924 17.9406 -6.69598 2.38126 9.79254 3.70877
lowerback 0.268482 -1.49294 -3.22097
upperback -0.28281 -2.00325 0.76984
thorax -0.302561 -0.992848 2.60262
lowerneck -11.4966 -3.79727 -2.55881
upperneck 8.85389 -4.72142 0.327887
head 4.597 -2.38688 0.169556
rclavicle 1.10201e-014 -3.18055e-015
rhumerus -12.276 -13.8093 -83.215
rradius 34.1006
rwrist -8.83901
rhand -16.7542 30.9384
rfingers 7.12502
rthumb 9.47254 1.17128
lclavicle 1.10201e-014 -3.18055e-015
lhumerus -49.6726 42.0614 59.397
lradius 11.5611
lwrist -19.5903
lhand -21.6636 20.7021
lfingers 7.12502
lthumb 4.73363 50.6292
rfemur -32.0597 10.8036 13.8428
rtibia 33.2383
rfoot -1.89408 -7.93984
rtoes 14.2769
lfemur 7.41422 -0.505034 -22.0212
ltibia 42.8684
lfoot 19.6837 1.79408
ltoes -18.2524
55
root 15.4779 17.9609 -6.53518 2.08122 9.75591 3.17632
lowerback 0.567435 -1.50358 -2.70634
upperback -0.216805 -2.02165 0.963343
thorax -0.411793 -1.00227 2.52053
lowerneck -11.2326 -3.65467 -2.51673
upperneck 8.58222 -4.53241 0.226992
head 4.46387 -2.29881 0.154023
rclavicle 1.90088e-014 0
rhumerus -13.5363 -13.8369 -83.1436
rradius 33.2438
rwrist -8.3479
rhand -17.1121 31.4532
rfingers 7.12502
rthumb 9.12717 1.67065
lclavicle 1.90088e-014 0
lhumerus -47.8426 42.0472 60.968
lradius 11.0601
lwrist -19.8203
lhand -19.9292 20.4218
lfingers 7.12502
lthumb 6.40817 50.3049
rfemur -31.2531 11.0529 14.7626
rtibia 33.2809
rfoot -2.32207 -7.8266
rtoes 14.8741
lfemur 5.80135 -0.693753 -21.4091
ltibia 45.6605
lfoot 20.4039 2.04554
ltoes -18.8742
56
root 15.4639 17.9826 -6.37353 1.72513 9.70623 2.55261
lowerback 0.83179 -1.47089 -2.06081
upperback -0.119179 -1.97664 1.10485
thorax -0.479421 -0.981457 2.30959
lowerneck -11.1348 -3.58375 -2.36884
upperneck 8.59379 -4.45734 0.171445
head 4.44574 -2.26069 0.120582
rclavicle -1.52691e-014 0
rhumerus -14.8771 -14.0075 -83.1172
rradius 32.4666
rwrist -7.9562
rhand -17.3342 31.747
rfingers 7.12502
rthumb 8.9129 1.95529
lclavicle -1.52691e-014 0
lhumerus -45.5364 41.9614 62.6418
lradius 10.3126
lwrist -20.4294
lhand -19.3024 20.0507
lfingers 7.12502
lthumb 7.01327 49.9146
rfemur -30.2183 11.4856 15.774
rtibia 33.1644
rfoot -2.70835 -7.93339
rtoes 14.6755
lfemur 4.30022 -0.85112 -20.683
ltibia 48.2775
lfoot 20.1821 1.66544
ltoes -19.1019
57
root 15.4632 18.0119 -6.21304 1.53569 9.40796 1.77355
lowerback 0.877662 -1.40451 -1.12946
upperback -0.0717653 -1.87745 1.32325
thorax -0.484519 -0.934313 2.01099
lowerneck -11.1475 -3.53386 -2.39927
upperneck 8.85067 -4.37756 0.0979756
head 4.52523 -2.22781 0.105533
rclavicle 2.47487e-014 -2.38542e-015
rhumerus -16.0593 -14.5151 -83.0412
rradius 31.5561
rwrist -7.1761
rhand -17.0275 31.6304
rfingers 7.12502
rthumb 9.2088 1.85152
lclavicle 2.47487e-014 -2.38542e-015
lhumerus -41.6404 39.6529 67.0429
lradius 10.2009
lwrist -17.4758
lhand -20.1537 20.0761
lfingers 7.12502
lthumb 6.19146 49.9656
rfemur -29.3732 11.7591 16.9369
rtibia 32.9051
rfoot -3.06223 -7.85826
rtoes 13.7376
lfemur 2.58129 -0.720861 -19.8535
ltibia 50.6883
lfoot 19.0019 0.990909
ltoes -19.8746
58
root 15.4867 18.0431 -6.03751 1.18603 8.76954 1.07459
lowerback 0.896362 -1.25274 -0.0205456
upperback 0.0656684 -1.66321 1.52286
thorax -0.389169 -0.830414 1.59012
lowerneck -11.1388 -3.44156 -2.60095
upperneck 9.0981 -4.21062 -0.00236476
head 4.60064 -2.16002 0.116478
rclavicle -2.31087e-014 2.38542e-015
rhumerus -17.1665 -15.1116 -82.8439
rradius 30.4954
rwrist -6.06906
rhand -17.0015 31.866
rfingers 7.12502
rthumb 9.23389 2.08818
lclavicle -2.31087e-014 2.38542e-015
lhumerus -38.4571 37.2552 70.9437
lradius 10.3625
lwrist -14.5614
lhand -20.6111 19.0585
lfingers 7.12502
lthumb 5.74985 48.9605
rfemur -28.2328 11.7259 18.0621
rtibia 32.5773
rfoot -3.6509 -7.20029
rtoes 12.9877
lfemur 1.15991 -0.297933 -19.2969
ltibia 53.0915
lfoot 17.1883 0.744947
ltoes -18.9265
59
root 15.5197 18.0719 -5.84748 0.590397 7.7619 0.484121
lowerback 0.929883 -0.954651 1.04987
upperback 0.378474 -1.25943 1.62813
thorax -0.119722 -0.629522 1.09074
lowerneck -11.1938 -3.32309 -2.57221
upperneck 9.24893 -4.03253 -0.189827
head 4.64976 -2.08397 0.0646781
rclavicle 2.58917e-014 -4.77083e-015
rhumerus -18.5136 -15.0945 -82.7082
rradius 29.8953
rwrist -5.61326
rhand -17.5188 32.2004
rfingers 7.12502
rthumb 8.73474 2.40108
lclavicle 2.58917e-014 -4.77083e-015
lhumerus -35.7895 34.5208 74.5141
lradius 11.0329
lwrist -11.8276
lhand -20.7709 18.4154
lfingers 7.12502
lthumb 5.59553 48.3215
rfemur -26.761 11.9587 19.0555
rtibia 32.1604
rfoot -4.30226 -6.40779
rtoes 13.1506
lfemur 0.21526 0.439216 -18.9627
ltibia 55.2423
lfoot 14.9801 0.676474
ltoes -18.8512
60
root 15.4597 18.0912 -5.77018 1.28871 9.36481 -0.151047
lowerback 1.29768 -1.49096 1.10283
upperback -0.0682527 -1.95354 1.99771
thorax -0.764151 -0.976678 1.4655
lowerneck -11.3794 -3.23152 -2.30611
upperneck 9.48232 -3.90655 -0.528829
head 4.73899 -2.03521 -0.0787422
rclavicle -6.13748e-015 1.27222e-014
rhumerus -19.8875 -14.9803 -82.6437
rradius 29.4747
rwrist -5.46162
rhand -17.6869 31.6553
rfingers 7.12502
rthumb 8.57249 1.84929
lclavicle -6.13748e-015 1.27222e-014
lhumerus -33.2903 31.9349 77.5548
lradius 11.7295
lwrist -9.37532
lhand -20.0413 18.8642
lfingers 7.12502
lthumb 6.29991 48.7505
rfemur -27.0109 11.2816 19.7864
rtibia 31.8418
rfoot -4.4158 -7.26365
rtoes 14.0832
lfemur -3.31023 -0.651219 -17.7388
ltibia 57.5969
lfoot 13.2502 -0.0986
ltoes -20.104
61
root 15.4653 18.1216 -5.60933 1.2296 8.97389 -0.856488
lowerback 1.1405 -1.38291 1.96997
upperback 0.0038136 -1.80156 2.16757
thorax -0.626237 -0.902659 1.14635
lowerneck -11.4744 -3.15909 -1.95838
upperneck 9.63893 -3.80956 -0.976745
head 4.78672 -2.00472 -0.268773
rclavicle -8.99501e-015 -2.46493e-014
rhumerus -21.0201 -15.8381 -82.446
rradius 28.9528
rwrist -4.97303
rhand -16.6787 30.21
rfingers 7.12502
rthumb 9.54539 0.446204
lclavicle -8.99501e-015 -2.46493e-014
lhumerus -31.0041 30.5766 79.5174
lradius 11.9312
lwrist -8.76548
lhand -19.0671 19.4813
lfingers 7.12502
lthumb 7.24043 49.3374
rfemur -26.4366 11.3172 20.7528
rtibia 31.6099
rfoot -4.68543 -6.96271
rtoes 15.155
lfemur -5.20408 -0.368029 -17.0348
ltibia 59.4927
lfoot 10.6195 0.131218
ltoes -18.7341
62
root 15.4608 18.1406 -5.4616 1.03149 8.75235 -1.1339
lowerback 1.42887 -1.37535 2.29793
upperback 0.050138 -1.77602 2.27634
thorax -0.747102 -0.891039 1.08126
lowerneck -11.4997 -3.08294 -1.85009
upperneck 9.79955 -3.68551 -1.28943
head 4.83231 -1.96131 -0.375702
rclavicle 2.11954e-014 5.56597e-015
rhumerus -22.1727 -16.1823 -82.2836
rradius 27.7592
rwrist -3.40726
rhand -17.4742 31.6633
rfingers 7.12502
rthumb 8.77776 1.86588
lclavicle 2.11954e-014 5.56597e-015
lhumerus -29.042 29.0865 81.4237
lradius 12.758
lwrist -7.85056
lhand -19.1577 19.3358
lfingers 7.12502
lthumb 7.1529 49.195
rfemur -25.7068 11.261 21.349
rtibia 31.4868
rfoot -5.00868 -6.91864
rtoes 15.4723
lfemur -6.78894 -0.0910538 -16.7137
ltibia 61.1691
lfoot 8.24614 0.0942382
ltoes -18.102
63
root 15.4528 18.155 -5.31998 1.08795 8.66643 -1.09318
lowerback 1.56906 -1.39839 2.25791
upperback 0.0178866 -1.80047 2.31748
thorax -0.856142 -0.903715 1.15077
lowerneck -11.4653 -3.03239 -1.98935
upperneck 9.92527 -3.58975 -1.32482
head 4.86761 -1.9228 -0.357976
rclavicle 6.23687e-015 9.54166e-015
rhumerus -23.3243 -15.7393 -82.2113
rradius 27.2943
rwrist -3.94542
rhand -16.7086 31.0289
rfingers 7.12502
rthumb 9.5165 1.26381
lclavicle 6.23687e-015 9.54166e-015
lhumerus -27.0792 26.8448 83.4726
lradius 13.7503
lwrist -5.76614
lhand -19.5519 18.9116
lfingers 7.12502
lthumb 6.77239 48.7833
rfemur -25.1463 10.7961 21.6011
rtibia 31.3935
rfoot -5.53951 -6.64039
rtoes 15.4653
lfemur -8.55728 0.0343045 -16.7549
ltibia 62.3886
lfoot 6.40453 0.232677
ltoes -18.6293
